<svg xmlns="http://www.w3.org/2000/svg" width="297" height="146" viewBox="0 0 297 146">
  <path fill="#2D2016" d="M29.40 120.40L29.40 43.99L26.77 43.99Q25.48 43.99 24.66 45.72Q23.84 47.45 22.96 55.07L22.96 55.07Q22.55 58.41 21.67 59.26Q20.79 60.11 18.15 60.11L18.15 60.11Q15.63 60.11 14.90 59.49Q14.17 58.88 14.17 57.06L14.17 57.06Q14.17 56.00 14.23 54.95L14.23 54.95L14.93 41.30Q15.05 38.89 15.75 38.16Q16.45 37.43 19.27 37.43L19.27 37.43L62.21 37.43Q64.09 37.43 64.50 37.90Q64.91 38.37 65.14 41.30L65.14 41.30L66.14 53.37Q66.26 54.77 66.26 56.24L66.26 56.24Q66.26 58.00 65.82 58.93Q65.38 59.87 63.04 59.87L63.04 59.87Q60.05 59.87 59.20 59.29Q58.35 58.70 57.82 55.59L57.82 55.59Q56.88 50.50 55.77 47.24Q54.66 43.99 53.02 43.99L53.02 43.99L51.26 43.99L51.26 119.23Q51.26 122.45 54.07 123.68L54.07 123.68Q55.24 124.21 55.62 124.94Q56.00 125.67 56.00 128.02L56.00 128.02Q56.00 131.00 55.48 131.50Q54.95 132 53.07 132L53.07 132L27.29 132Q25.77 132 25.33 131.41Q24.89 130.83 24.89 128.07L24.89 128.07Q24.89 124.79 26.71 124.09L26.71 124.09Q28.46 123.39 28.93 122.71Q29.40 122.04 29.40 120.40L29.40 120.40ZM100.83 44.64L96.84 44.64L96.84 78.09L100.83 78.09Q102.47 78.09 103.23 77.39Q103.99 76.69 104.40 74.34L104.40 74.34Q105.11 70.18 105.54 69.36Q105.98 68.54 106.92 68.54L106.92 68.54Q111.55 68.54 112.17 68.92Q112.78 69.30 112.78 71.88L112.78 71.88L112.78 91.39Q112.78 93.21 112.20 93.77Q111.61 94.32 108.56 94.32L108.56 94.32Q106.57 94.32 105.90 93.59Q105.22 92.86 104.58 89.46L104.58 89.46Q103.93 86.36 103.32 85.65Q102.70 84.95 101.41 84.95L101.41 84.95L96.84 84.95L96.84 125.32L99.95 125.32Q102.82 125.32 103.90 123.71Q104.99 122.10 107.39 114.42L107.39 114.42Q108.39 111.20 109.44 110.20Q110.50 109.21 113.13 109.21L113.13 109.21Q116.77 109.21 116.77 111.55L116.77 111.55Q116.77 112.25 116.53 113.60L116.53 113.60L114.36 126.90Q113.78 130.54 113.40 131.27Q113.02 132 111.02 132L111.02 132L71.94 132Q70.48 132 70.07 131.33Q69.66 130.65 69.66 127.43L69.66 127.43Q69.66 125.38 71.77 124.44L71.77 124.44Q74.99 123.09 74.99 120.75L74.99 120.75L74.99 47.68Q74.93 46.57 72.35 45.46L72.35 45.46Q70.59 44.70 70.27 43.99Q69.95 43.29 69.95 40.59L69.95 40.59Q69.95 38.31 70.30 37.87Q70.65 37.43 72.35 37.43L72.35 37.43L109.73 37.43Q111.14 37.43 111.79 37.90Q112.43 38.37 112.78 40.13L112.78 40.13L115.77 55.24Q116.00 56.41 116.00 56.82L116.00 56.82Q116.00 58.41 113.19 58.41L113.19 58.41Q110.03 58.41 108.97 57.67Q107.92 56.94 106.92 54.01L106.92 54.01Q105.11 48.74 103.79 46.69Q102.47 44.64 100.83 44.64L100.83 44.64ZM148.00 111.79L148.00 111.79L133.35 111.79L132.70 117.18Q132.70 117.35 132.59 117.70L132.59 117.70Q132.12 119.40 132.12 120.75L132.12 120.75Q132.12 122.86 134.87 124.32L134.87 124.32Q136.34 125.09 136.69 125.91Q137.04 126.73 137.04 128.60L137.04 128.60Q137.04 131.00 136.78 131.50Q136.51 132 135.52 132L135.52 132L120.05 132Q118.76 132 118.76 129.30L118.76 129.30Q118.76 126.08 120.81 124.09L120.81 124.09Q122.74 122.27 123.04 120.22L123.04 120.22L133.88 51.26Q134.17 49.68 134.17 48.50L134.17 48.50Q134.17 46.69 131.65 45.28L131.65 45.28Q130.48 44.58 130.48 42.18L130.48 42.18Q130.48 38.95 130.83 38.19Q131.18 37.43 132.70 37.43L132.70 37.43L155.09 37.43Q157.14 37.43 157.96 39.36Q158.78 41.30 159.60 47.80L159.60 47.80Q159.95 50.32 160.30 52.78L160.30 52.78L169.91 117.18Q170.61 121.86 173.37 124.32L173.37 124.32Q174.13 124.97 174.36 125.35Q174.60 125.73 174.60 127.66L174.60 127.66Q174.60 130.65 174.19 131.33Q173.78 132 172.43 132L172.43 132L146.36 132Q145.18 132 145.18 129.77L145.18 129.77Q145.18 126.96 145.48 126.26Q145.77 125.55 147.18 124.62L147.18 124.62Q149.23 123.33 149.23 121.34L149.23 121.34Q149.23 119.29 148.00 111.79ZM147.35 105.05L140.96 59.52L134.46 105.05L147.35 105.05ZM207.18 90.40L204.54 90.40L204.54 119.46Q204.54 121.51 204.80 122.21Q205.07 122.92 206.30 123.68L206.30 123.68Q207.88 124.68 207.88 127.02L207.88 127.02Q207.88 130.42 207.26 131.21Q206.65 132 205.01 132L205.01 132L180.22 132Q178.11 132 178.11 128.95L178.11 128.95Q178.11 126.02 178.29 125.17Q178.46 124.32 179.46 123.97L179.46 123.97Q182.68 122.68 182.68 118.93L182.68 118.93L182.68 50.32Q182.68 46.51 179.87 45.69L179.87 45.69Q178.46 45.22 178.11 44.75Q177.76 44.29 177.76 42L177.76 42Q177.76 37.43 180.22 37.43L180.22 37.43L212.63 37.43Q222.29 37.43 229.88 44.70Q237.47 51.96 237.47 64.21L237.47 64.21Q237.47 81.61 219.71 86.94L219.71 86.94Q235.95 90.52 235.95 107.51L235.95 107.51L235.95 121.45Q235.95 123.21 237.29 124.09L237.29 124.09Q238.88 125.14 238.88 127.31L238.88 127.31Q238.88 130.71 238.46 131.36Q238.05 132 236.30 132L236.30 132L220.59 132Q217.78 132 215.96 128.81Q214.15 125.61 214.15 120.93L214.15 120.93L214.15 97.31Q214.15 90.40 207.18 90.40L207.18 90.40ZM206.53 44.11L204.54 44.11L204.54 83.60L208.35 83.60Q214.15 83.60 214.15 71.94L214.15 71.94L214.15 53.07Q214.15 48.15 212.30 46.13Q210.46 44.11 206.53 44.11L206.53 44.11ZM269.87 39.95L269.87 39.95Q270.22 39.66 271.86 37.31L271.86 37.31Q272.92 35.79 274.68 35.79L274.68 35.79Q275.09 35.79 277.96 36.20L277.96 36.20Q278.54 36.79 278.84 38.66L278.84 38.66L282 58.52Q282.23 60.11 282.23 60.40L282.23 60.40Q282.23 61.51 281.62 61.86Q281.00 62.21 278.37 62.21L278.37 62.21Q275.38 62.21 274.50 61.45Q273.62 60.69 271.16 55.13L271.16 55.13Q265.95 43.35 261.84 43.35L261.84 43.35Q258.91 43.35 258.91 47.45L258.91 47.45Q258.91 52.55 267.76 67.49L267.76 67.49Q277.90 84.71 280.97 92.42Q284.05 100.13 284.05 109.68L284.05 109.68Q284.05 120.98 278.72 127.02Q273.39 133.05 266.71 133.05L266.71 133.05Q262.49 133.05 258.56 130.65L258.56 130.65Q257.04 129.71 256.16 129.71L256.16 129.71Q255.40 129.71 254.93 130.83L254.93 130.83Q253.99 133.05 250.36 133.05L250.36 133.05Q248.95 133.05 248.46 132.62Q247.96 132.18 247.72 130.30L247.72 130.30L244.79 110.79Q244.21 107.04 244.21 106.80L244.21 106.80Q244.21 105.11 247.31 105.11L247.31 105.11Q251.53 105.11 252.29 106.22Q253.05 107.33 254.46 111.32L254.46 111.32Q259.62 125.55 264.83 125.55L264.83 125.55Q266.77 125.55 267.97 124.15Q269.17 122.74 269.17 120.63L269.17 120.63Q269.17 116.94 266.50 111.87Q263.84 106.80 259.97 100.59L259.97 100.59Q250.71 85.71 246.87 76.83Q243.04 67.96 243.04 58.70L243.04 58.70Q243.04 48.27 247.61 42.06Q252.18 35.85 258.80 35.85L258.80 35.85Q263.37 35.85 269.87 39.95Z"/>
</svg>