<svg xmlns="http://www.w3.org/2000/svg" width="343" height="146" viewBox="0 0 343 146">
  <path fill="#2D2016" d="M44.58 35.85L44.58 35.85Q53.19 35.85 59.49 41.62Q65.79 47.39 69.77 58.05Q73.76 68.72 73.76 85.42L73.76 85.42Q73.76 105.46 65.99 119.26Q58.23 133.05 44.11 133.05L44.11 133.05Q30.69 133.05 22.96 119.58Q15.22 106.10 15.22 84.77L15.22 84.77Q15.22 62.92 23.16 49.38Q31.10 35.85 44.58 35.85ZM49.21 120.05L49.21 49.73Q49.21 42.41 44.46 42.41L44.46 42.41Q42.47 42.41 41.06 44.23Q39.66 46.04 39.66 48.68L39.66 48.68L39.66 119.40Q39.66 122.98 41.06 124.82Q42.47 126.67 44.40 126.67L44.40 126.67Q46.57 126.67 47.89 124.62Q49.21 122.57 49.21 120.05L49.21 120.05ZM116.24 132L93.27 78.39L93.27 119.75Q93.27 122.33 96.20 123.62L96.20 123.62Q98.66 124.73 98.66 126.79L98.66 126.79Q98.66 131.06 98.46 131.53Q98.25 132 96.73 132L96.73 132L81.14 132Q79.97 132 79.68 131.09Q79.38 130.18 79.38 126.61L79.38 126.61Q79.38 124.97 80.96 124.32L80.96 124.32Q84.01 122.98 84.01 121.28L84.01 121.28L84.01 52.02Q84.01 49.50 83.54 48.24Q83.07 46.98 81.43 46.16L81.43 46.16Q79.97 45.46 79.47 44.64Q78.97 43.82 78.97 41.53L78.97 41.53Q78.97 37.43 81.14 37.43L81.14 37.43L97.43 37.43L117.12 83.07L117.12 49.44Q117.12 46.63 114.25 45.46L114.25 45.46Q112.55 44.70 112.05 43.73Q111.55 42.76 111.55 39.95L111.55 39.95Q111.55 38.19 111.90 37.81Q112.25 37.43 113.25 37.43L113.25 37.43L129.42 37.43Q130.77 37.61 130.77 41.30L130.77 41.30Q130.77 43.46 130.51 44.05Q130.24 44.64 129.30 45.05L129.30 45.05Q127.25 45.87 126.73 46.63Q126.20 47.39 126.20 48.74L126.20 48.74L126.20 132L116.24 132ZM133.76 42.35L133.76 42.35L133.76 39.25Q133.76 37.43 135.69 37.43L135.69 37.43L163.76 37.43Q165.34 37.43 165.81 37.84Q166.28 38.25 166.28 40.30L166.28 40.30Q166.28 43.41 165.96 44.17Q165.63 44.93 164.52 45.11L164.52 45.11Q160.89 45.75 160.89 49.73L160.89 49.73L160.89 120.16Q160.89 122.39 163.52 123.68L163.52 123.68Q165.22 124.50 165.57 125.14Q165.93 125.79 165.93 127.37L165.93 127.37L165.93 129.66Q165.93 131.53 165.57 131.77Q165.22 132 163.76 132L163.76 132L135.16 132Q133.52 132 133.52 130.71L133.52 130.71Q133.52 126.49 133.82 125.55Q134.11 124.62 135.87 124.09L135.87 124.09Q139.03 123.21 139.03 120.75L139.03 120.75L139.03 51.20Q139.03 48.74 138.45 47.48Q137.86 46.22 135.87 45.40L135.87 45.40Q134.40 44.75 134.08 44.26Q133.76 43.76 133.76 42.35ZM199.62 35.85L199.62 35.85Q208.23 35.85 214.53 41.62Q220.83 47.39 224.81 58.05Q228.80 68.72 228.80 85.42L228.80 85.42Q228.80 105.46 221.03 119.26Q213.27 133.05 199.15 133.05L199.15 133.05Q185.73 133.05 178.00 119.58Q170.26 106.10 170.26 84.77L170.26 84.77Q170.26 62.92 178.20 49.38Q186.14 35.85 199.62 35.85ZM204.25 120.05L204.25 49.73Q204.25 42.41 199.50 42.41L199.50 42.41Q197.51 42.41 196.10 44.23Q194.70 46.04 194.70 48.68L194.70 48.68L194.70 119.40Q194.70 122.98 196.10 124.82Q197.51 126.67 199.44 126.67L199.44 126.67Q201.61 126.67 202.93 124.62Q204.25 122.57 204.25 120.05L204.25 120.05ZM271.28 132L248.31 78.39L248.31 119.75Q248.31 122.33 251.24 123.62L251.24 123.62Q253.70 124.73 253.70 126.79L253.70 126.79Q253.70 131.06 253.49 131.53Q253.29 132 251.77 132L251.77 132L236.18 132Q235.01 132 234.71 131.09Q234.42 130.18 234.42 126.61L234.42 126.61Q234.42 124.97 236.00 124.32L236.00 124.32Q239.05 122.98 239.05 121.28L239.05 121.28L239.05 52.02Q239.05 49.50 238.58 48.24Q238.11 46.98 236.47 46.16L236.47 46.16Q235.01 45.46 234.51 44.64Q234.01 43.82 234.01 41.53L234.01 41.53Q234.01 37.43 236.18 37.43L236.18 37.43L252.47 37.43L272.16 83.07L272.16 49.44Q272.16 46.63 269.29 45.46L269.29 45.46Q267.59 44.70 267.09 43.73Q266.59 42.76 266.59 39.95L266.59 39.95Q266.59 38.19 266.94 37.81Q267.29 37.43 268.29 37.43L268.29 37.43L284.46 37.43Q285.81 37.61 285.81 41.30L285.81 41.30Q285.81 43.46 285.54 44.05Q285.28 44.64 284.34 45.05L284.34 45.05Q282.29 45.87 281.77 46.63Q281.24 47.39 281.24 48.74L281.24 48.74L281.24 132L271.28 132ZM316.22 39.95L316.22 39.95Q316.57 39.66 318.21 37.31L318.21 37.31Q319.27 35.79 321.02 35.79L321.02 35.79Q321.43 35.79 324.30 36.20L324.30 36.20Q324.89 36.79 325.18 38.66L325.18 38.66L328.35 58.52Q328.58 60.11 328.58 60.40L328.58 60.40Q328.58 61.51 327.97 61.86Q327.35 62.21 324.71 62.21L324.71 62.21Q321.73 62.21 320.85 61.45Q319.97 60.69 317.51 55.13L317.51 55.13Q312.29 43.35 308.19 43.35L308.19 43.35Q305.26 43.35 305.26 47.45L305.26 47.45Q305.26 52.55 314.11 67.49L314.11 67.49Q324.25 84.71 327.32 92.42Q330.40 100.13 330.40 109.68L330.40 109.68Q330.40 120.98 325.07 127.02Q319.73 133.05 313.05 133.05L313.05 133.05Q308.84 133.05 304.91 130.65L304.91 130.65Q303.39 129.71 302.51 129.71L302.51 129.71Q301.75 129.71 301.28 130.83L301.28 130.83Q300.34 133.05 296.71 133.05L296.71 133.05Q295.30 133.05 294.80 132.62Q294.30 132.18 294.07 130.30L294.07 130.30L291.14 110.79Q290.55 107.04 290.55 106.80L290.55 106.80Q290.55 105.11 293.66 105.11L293.66 105.11Q297.88 105.11 298.64 106.22Q299.40 107.33 300.81 111.32L300.81 111.32Q305.96 125.55 311.18 125.55L311.18 125.55Q313.11 125.55 314.31 124.15Q315.52 122.74 315.52 120.63L315.52 120.63Q315.52 116.94 312.85 111.87Q310.18 106.80 306.32 100.59L306.32 100.59Q297.06 85.71 293.22 76.83Q289.38 67.96 289.38 58.70L289.38 58.70Q289.38 48.27 293.95 42.06Q298.52 35.85 305.14 35.85L305.14 35.85Q309.71 35.85 316.22 39.95Z"/>
</svg>