<svg xmlns="http://www.w3.org/2000/svg" width="439" height="146" viewBox="0 0 439 146">
  <path fill="#2D2016" d="M46.34 90.81L50.91 65.14L48.21 49.91Q47.86 47.74 45.93 45.75L45.93 45.75Q44.64 44.46 44.64 43.29L44.64 43.29L44.64 39.19Q44.64 37.43 46.34 37.43L46.34 37.43L70.36 37.43Q71.53 37.43 71.85 38.02Q72.18 38.60 72.18 40.65L72.18 40.65Q72.18 43.76 71.85 44.37Q71.53 44.99 70.36 45.63L70.36 45.63Q68.60 46.57 68.60 47.51L68.60 47.51Q68.60 48.74 69.07 51.14L69.07 51.14L75.75 88.64L82.72 49.91Q82.78 49.32 82.78 48.68L82.78 48.68Q82.78 45.98 79.79 44.58L79.79 44.58Q78.27 43.88 78.21 40.59L78.21 40.59Q78.21 39.71 78.15 39.36L78.15 39.36L78.15 38.84Q78.15 37.43 80.26 37.43L80.26 37.43L93.74 37.43Q95.14 37.43 95.55 37.93Q95.96 38.43 95.96 40.07L95.96 40.07Q95.96 40.59 95.91 41.12L95.91 41.12L95.73 43.41Q95.50 44.75 93.86 45.81L93.86 45.81Q92.21 46.86 91.75 49.38L91.75 49.38L77.63 126.73Q76.80 131.30 76.28 132.18Q75.75 133.05 74.34 133.05L74.34 133.05L64.50 133.05Q62.92 133.05 62.51 129.71L62.51 129.71Q62.45 129.07 62.39 128.72L62.39 128.72L54.95 87.41L47.57 129.42Q47.16 131.94 46.69 132.50Q46.22 133.05 45.16 133.05L45.16 133.05L34.91 133.05Q33.15 133.05 32.39 126.90L32.39 126.90Q32.27 125.79 32.16 125.20L32.16 125.20L18.15 49.38Q17.68 46.98 15.69 45.87L15.69 45.87Q14.05 44.99 14.05 43.29L14.05 43.29L14.05 38.78Q14.05 37.43 15.69 37.43L15.69 37.43L38.89 37.43Q40.07 37.43 40.54 38.04Q41.00 38.66 41.00 40.89L41.00 40.89Q41.00 43.41 40.83 44.05Q40.65 44.70 39.71 45.52L39.71 45.52Q38.54 46.63 38.54 47.80L38.54 47.80Q38.54 49.15 38.89 51.14L38.89 51.14L46.34 90.81ZM98.78 42.35L98.78 42.35L98.78 39.25Q98.78 37.43 100.71 37.43L100.71 37.43L128.78 37.43Q130.36 37.43 130.83 37.84Q131.30 38.25 131.30 40.30L131.30 40.30Q131.30 43.41 130.97 44.17Q130.65 44.93 129.54 45.11L129.54 45.11Q125.91 45.75 125.91 49.73L125.91 49.73L125.91 120.16Q125.91 122.39 128.54 123.68L128.54 123.68Q130.24 124.50 130.59 125.14Q130.95 125.79 130.95 127.37L130.95 127.37L130.95 129.66Q130.95 131.53 130.59 131.77Q130.24 132 128.78 132L128.78 132L100.18 132Q98.54 132 98.54 130.71L98.54 130.71Q98.54 126.49 98.84 125.55Q99.13 124.62 100.89 124.09L100.89 124.09Q104.05 123.21 104.05 120.75L104.05 120.75L104.05 51.20Q104.05 48.74 103.46 47.48Q102.88 46.22 100.89 45.40L100.89 45.40Q99.42 44.75 99.10 44.26Q98.78 43.76 98.78 42.35ZM149.46 120.40L149.46 43.99L146.82 43.99Q145.54 43.99 144.71 45.72Q143.89 47.45 143.02 55.07L143.02 55.07Q142.61 58.41 141.73 59.26Q140.85 60.11 138.21 60.11L138.21 60.11Q135.69 60.11 134.96 59.49Q134.23 58.88 134.23 57.06L134.23 57.06Q134.23 56.00 134.29 54.95L134.29 54.95L134.99 41.30Q135.11 38.89 135.81 38.16Q136.51 37.43 139.32 37.43L139.32 37.43L182.27 37.43Q184.15 37.43 184.56 37.90Q184.97 38.37 185.20 41.30L185.20 41.30L186.20 53.37Q186.32 54.77 186.32 56.24L186.32 56.24Q186.32 58.00 185.88 58.93Q185.44 59.87 183.09 59.87L183.09 59.87Q180.11 59.87 179.26 59.29Q178.41 58.70 177.88 55.59L177.88 55.59Q176.94 50.50 175.83 47.24Q174.71 43.99 173.07 43.99L173.07 43.99L171.32 43.99L171.32 119.23Q171.32 122.45 174.13 123.68L174.13 123.68Q175.30 124.21 175.68 124.94Q176.06 125.67 176.06 128.02L176.06 128.02Q176.06 131.00 175.54 131.50Q175.01 132 173.13 132L173.13 132L147.35 132Q145.83 132 145.39 131.41Q144.95 130.83 144.95 128.07L144.95 128.07Q144.95 124.79 146.77 124.09L146.77 124.09Q148.52 123.39 148.99 122.71Q149.46 122.04 149.46 120.40L149.46 120.40ZM216.79 48.50L216.79 77.98L226.16 77.98L226.16 48.50Q226.16 47.10 225.90 46.63Q225.63 46.16 224.46 45.46L224.46 45.46Q223.17 44.75 223.17 42.18L223.17 42.18Q223.17 38.89 223.46 38.16Q223.76 37.43 225.11 37.43L225.11 37.43L250.54 37.43Q252.23 37.43 252.59 38.04Q252.94 38.66 252.94 42.06L252.94 42.06Q252.94 44.11 252.56 44.49Q252.18 44.87 250.18 45.87L250.18 45.87Q248.02 47.04 248.02 49.50L248.02 49.50L248.02 119.64Q248.02 122.39 250.54 124.03L250.54 124.03Q252.59 125.32 252.59 126.38L252.59 126.38L252.59 130.07Q252.59 131.24 252.23 131.62Q251.88 132 250.18 132L250.18 132L224.64 132Q223.35 132 223.05 131.53Q222.76 131.06 222.76 127.20L222.76 127.20Q222.76 125.26 224.34 124.15L224.34 124.15Q226.16 122.86 226.16 121.16L226.16 121.16L226.16 84.60L216.79 84.60L216.79 121.51Q216.79 123.39 218.31 124.50L218.31 124.50Q219.83 125.73 219.83 127.96L219.83 127.96Q219.83 131.06 219.48 131.53Q219.13 132 218.07 132L218.07 132L192.35 132Q191.12 132 190.83 131.47Q190.54 130.95 190.54 127.31L190.54 127.31Q190.54 125.61 190.83 125.09Q191.12 124.56 192.47 123.80L192.47 123.80Q194.93 122.51 194.93 120.34L194.93 120.34L194.93 49.50Q194.93 47.80 192.76 46.28L192.76 46.28Q190.59 44.70 190.59 41.77L190.59 41.77Q190.59 38.66 191.09 38.04Q191.59 37.43 193.29 37.43L193.29 37.43L217.31 37.43Q218.89 37.43 219.48 37.99Q220.07 38.54 220.07 40.59L220.07 40.59L220.07 43.35Q219.95 44.40 218.60 45.22L218.60 45.22Q216.79 46.22 216.79 48.50L216.79 48.50ZM287.16 35.85L287.16 35.85Q295.77 35.85 302.07 41.62Q308.37 47.39 312.35 58.05Q316.34 68.72 316.34 85.42L316.34 85.42Q316.34 105.46 308.57 119.26Q300.81 133.05 286.69 133.05L286.69 133.05Q273.27 133.05 265.54 119.58Q257.80 106.10 257.80 84.77L257.80 84.77Q257.80 62.92 265.74 49.38Q273.68 35.85 287.16 35.85ZM291.79 120.05L291.79 49.73Q291.79 42.41 287.04 42.41L287.04 42.41Q285.05 42.41 283.64 44.23Q282.23 46.04 282.23 48.68L282.23 48.68L282.23 119.40Q282.23 122.98 283.64 124.82Q285.05 126.67 286.98 126.67L286.98 126.67Q289.15 126.67 290.47 124.62Q291.79 122.57 291.79 120.05L291.79 120.05ZM323.72 37.43L323.72 37.43L349.09 37.43Q350.38 37.43 350.73 37.99Q351.08 38.54 351.08 41.41L351.08 41.41Q351.08 44.29 349.38 45.22L349.38 45.22Q348.09 45.93 347.65 46.69Q347.21 47.45 347.21 49.62L347.21 49.62L347.21 115.24Q347.21 117.94 348.74 119.61Q350.26 121.28 352.61 121.28L352.61 121.28Q354.77 121.28 356.30 119.40Q357.82 117.53 357.82 115.24L357.82 115.24L357.82 49.62Q357.82 47.92 357.50 47.24Q357.18 46.57 355.89 45.57L355.89 45.57Q353.89 44.05 353.89 40.89L353.89 40.89Q353.89 38.43 354.45 37.93Q355.01 37.43 356.06 37.43L356.06 37.43L368.72 37.43Q370.83 37.43 370.83 39.54L370.83 39.54L370.83 42.35Q370.83 44.23 370.59 44.72Q370.36 45.22 369.25 45.63L369.25 45.63Q366.49 46.57 366.49 49.44L366.49 49.44L366.49 113.37Q366.49 122.45 361.28 127.75Q356.06 133.05 346.75 133.05L346.75 133.05Q336.32 133.05 330.84 127.43Q325.36 121.80 325.36 111.20L325.36 111.20L325.36 49.44Q325.36 46.98 322.78 45.81L322.78 45.81Q321.49 45.22 321.23 44.72Q320.96 44.23 320.96 42.59L320.96 42.59Q320.96 39.19 321.38 38.31Q321.79 37.43 323.72 37.43ZM389.46 120.40L389.46 43.99L386.82 43.99Q385.54 43.99 384.71 45.72Q383.89 47.45 383.02 55.07L383.02 55.07Q382.61 58.41 381.73 59.26Q380.85 60.11 378.21 60.11L378.21 60.11Q375.69 60.11 374.96 59.49Q374.23 58.88 374.23 57.06L374.23 57.06Q374.23 56.00 374.29 54.95L374.29 54.95L374.99 41.30Q375.11 38.89 375.81 38.16Q376.51 37.43 379.32 37.43L379.32 37.43L422.27 37.43Q424.15 37.43 424.56 37.90Q424.97 38.37 425.20 41.30L425.20 41.30L426.20 53.37Q426.32 54.77 426.32 56.24L426.32 56.24Q426.32 58.00 425.88 58.93Q425.44 59.87 423.09 59.87L423.09 59.87Q420.11 59.87 419.26 59.29Q418.41 58.70 417.88 55.59L417.88 55.59Q416.94 50.50 415.83 47.24Q414.71 43.99 413.07 43.99L413.07 43.99L411.32 43.99L411.32 119.23Q411.32 122.45 414.13 123.68L414.13 123.68Q415.30 124.21 415.68 124.94Q416.06 125.67 416.06 128.02L416.06 128.02Q416.06 131.00 415.54 131.50Q415.01 132 413.13 132L413.13 132L387.35 132Q385.83 132 385.39 131.41Q384.95 130.83 384.95 128.07L384.95 128.07Q384.95 124.79 386.77 124.09L386.77 124.09Q388.52 123.39 388.99 122.71Q389.46 122.04 389.46 120.40L389.46 120.40Z"/>
</svg>